<?xml version="1.0" encoding="utf-8"?>
<!-- Generator: Adobe Illustrator 24.3.0, SVG Export Plug-In . SVG Version: 6.00 Build 0)  -->
<svg version="1.1" id="Capa_1" xmlns="http://www.w3.org/2000/svg" xmlns:xlink="http://www.w3.org/1999/xlink" x="0px" y="0px"
	 viewBox="0 0 862.3 118.6" style="enable-background:new 0 0 862.3 118.6;" xml:space="preserve">
<style type="text/css">
	.st0{fill:#E6007E;}
	.st1{fill:#FFFFFF;}
</style>
<g>
	<g>
		<path class="st0" d="M18.5,71.5H3.1L8.9,4.2h16.9l9.4,24.4c1.6,4.1,3,7.8,4.1,11.2c1.1,3.4,1.9,5.8,2.2,7.2l0.5,2
			c1.1-4.4,3.4-11.2,7-20.4l9.5-24.4h16.9l7,67.3H66.9l-2.5-26.1l-1.3-19.7c-1.7,5-4.1,11.5-7.2,19.7l-9.5,25.4h-9.1L28,45.4
			c-1.5-4.1-2.8-7.8-3.9-11.1c-1.1-3.3-1.8-5.5-2.1-6.8l-0.5-1.8c0,4.7-0.3,11.3-0.9,19.7L18.5,71.5z"/>
		<path class="st0" d="M156.8,37.6c0,10.3-3,18.7-8.9,25c-6,6.4-13.9,9.5-23.8,9.5c-10,0-17.9-3.2-23.9-9.5
			c-5.9-6.3-8.9-14.7-8.9-25.1c0-10.3,3-18.7,8.9-25c6-6.4,13.9-9.5,23.8-9.5c10,0,17.9,3.2,23.9,9.5
			C153.8,18.9,156.8,27.2,156.8,37.6z M112.2,22.6c-2.9,3.7-4.4,8.7-4.4,15c0,6.3,1.5,11.3,4.4,15c2.9,3.7,6.9,5.5,11.9,5.5
			c5,0,9-1.8,11.9-5.5c2.9-3.7,4.4-8.7,4.4-15c0-6.3-1.5-11.3-4.4-15C133,18.9,129,17,124,17C119.1,17,115.1,18.9,112.2,22.6z"/>
		<path class="st0" d="M182.7,71.5h-15.4V4.2h16.9L199.8,32c2.2,3.9,4.1,7.6,5.7,11c1.6,3.4,2.7,5.8,3.1,7.2l0.8,2.2
			c-0.7-4.9-1-11.7-1-20.5V4.2h15.4v67.3H207l-16.1-27.9c-2.1-3.6-4-7.1-5.6-10.6c-1.6-3.5-2.7-6.1-3.3-7.7l-0.8-2.5
			c1,6,1.5,12.9,1.5,20.9V71.5z"/>
		<path class="st0" d="M259.8,71.5h-23V4.2H260c10.1,0,18.4,3.1,24.9,9.3c6.5,6.2,10.7,14,10.7,23.2c0,10.8-4.2,19.3-10.5,25.5
			C278.7,68.4,270.3,71.5,259.8,71.5z M259.5,16.8h-6.9v42h7c6.2,0,11-1.9,14.3-5.8c3.4-3.9,5-9.3,5-16.4c0-6-1.7-10.8-5.1-14.4
			C270.5,18.7,265.7,16.8,259.5,16.8z"/>
	</g>
	<path class="st1" d="M379.1,41.4c0-21.1-17.2-38.3-38.3-38.3c-21.1,0-38.3,17.2-38.3,38.3c0,19.6,14.8,35.4,33.5,37.8v10.1h-13.9
		c-2.9,0-4.8,1.9-4.8,4.8c0,2.9,1.9,4.8,4.8,4.8h14v12c0,2.9,1.9,4.8,4.8,4.8c2.9,0,4.8-1.9,4.8-4.8v-12H359c2.9,0,4.8-1.9,4.8-4.8
		c0-2.9-1.9-4.8-4.8-4.8h-13.4V79.2C364.2,76.8,379.1,61,379.1,41.4z M340.8,65.3c-12.9,0-23.9-10.5-23.9-23.9
		c0-13.4,11-23.9,23.9-23.9c13.4,0,23.9,10.5,23.9,23.9C364.7,54.8,354.2,65.3,340.8,65.3z"/>
	<g>
		<path class="st0" d="M439,104.6c-4,2.5-9.9,3.8-17.5,3.8c-9.8,0-18-3.2-24.6-9.5c-6.6-6.3-9.9-14.5-9.9-24.6
			c0-10.2,3.2-18.5,9.6-24.9c6.4-6.4,14.7-9.6,25-9.6c7.6,0,13.3,1.3,17.4,3.8v14.7c-5-3-10.5-4.6-16.6-4.6c-5.4,0-9.9,1.9-13.5,5.6
			c-3.6,3.7-5.5,8.8-5.5,15.1c0,6.2,1.8,11,5.5,14.7c3.6,3.6,8.3,5.4,14.1,5.4c6.2,0,11.6-1.6,16-4.8V104.6z"/>
		<path class="st0" d="M462.3,107.6h-16l22.4-67h19.3l22.4,67h-16.4l-4.1-13.7h-23.4L462.3,107.6z M470.7,79.2l-0.7,2.4h16.1
			l-0.7-2.4c-1.9-6.5-3.5-12-4.7-16.6c-1.2-4.6-2-7.5-2.2-8.8l-0.4-2C477.5,55.4,475.1,64.5,470.7,79.2z"/>
		<path class="st0" d="M532.8,107.6h-15.3l5.8-67h16.8l9.3,24.2c1.6,4,2.9,7.7,4.1,11.1c1.1,3.4,1.9,5.8,2.2,7.2l0.5,2
			c1.1-4.4,3.4-11.1,7-20.3l9.4-24.2h16.8l7,67H581l-2.5-25.9l-1.3-19.6c-1.7,5-4.1,11.5-7.2,19.6l-9.4,25.2h-9l-9.3-25.2
			c-1.5-4.1-2.8-7.8-3.9-11c-1.1-3.2-1.8-5.5-2.1-6.8l-0.5-1.8c0,4.7-0.3,11.2-0.9,19.6L532.8,107.6z"/>
		<path class="st0" d="M665.4,101.4c-6.4,4.6-14.4,7-24,7c-10.7,0-19.4-3.1-26.1-9.2c-6.7-6.2-10-14.5-10-25.1
			c0-10.5,3.5-18.8,10.5-25.1c7-6.3,15.8-9.4,26.6-9.4c7.6,0,14.1,1.4,19.6,4.2v15.3c-6.4-3.6-12.9-5.5-19.6-5.5
			c-6.3,0-11.3,1.9-15,5.6c-3.7,3.7-5.6,8.7-5.6,15c0,6.3,1.8,11.3,5.5,15c3.6,3.7,8.6,5.6,14.9,5.6c2.8,0,5.7-0.4,8.4-1.3V80.7
			h-10.8v-13h25.7V101.4z"/>
		<path class="st0" d="M694.1,107.6h-15.3v-67h15.3V107.6z"/>
		<path class="st0" d="M723.4,107.6h-15.3v-67h23.1c7.5,0,13.5,2,18,6c4.5,4,6.8,9.1,6.8,15.5c0,9.5-4.1,16.1-12.2,19.8l17,25.7
			h-18.3L728,84.3h-4.7V107.6z M730.9,53.1h-7.6v18.9h7.3c6.6,0,9.9-3.2,9.9-9.7c0-2.8-0.9-5.1-2.6-6.7
			C736.2,53.9,733.9,53.1,730.9,53.1z"/>
		<path class="st0" d="M809.1,107.6h-40v-67h15.3v53.5h24.7V107.6z"/>
		<path class="st0" d="M859.2,88.1c0,6-2.2,10.9-6.7,14.7c-4.4,3.7-10.3,5.6-17.7,5.6c-7.9,0-14.3-1.4-19.3-4.2V88.8
			c6,4.4,12.5,6.6,19.3,6.6c2.3,0,4.2-0.6,5.8-1.8c1.5-1.2,2.3-2.8,2.3-4.8c0-0.7-0.1-1.3-0.3-1.9c-0.2-0.6-0.6-1.2-1.1-1.7
			c-0.5-0.5-1-1-1.5-1.3c-0.5-0.4-1.2-0.8-2.2-1.3c-1-0.5-1.8-0.9-2.4-1.2c-0.7-0.3-1.6-0.8-2.9-1.4c-1.3-0.6-2.3-1.1-3.1-1.4
			c-4.3-2-7.8-4.4-10.4-7.4c-2.6-2.9-3.9-6.8-3.9-11.6c0-5.8,2.1-10.4,6.4-14c4.2-3.5,10.1-5.3,17.6-5.3c6.7,0,12.5,1.1,17.3,3.4
			v14.3c-5.4-3.1-10.9-4.7-16.7-4.7c-2.6,0-4.6,0.5-5.9,1.6c-1.4,1.1-2,2.4-2,4.1c0,1.7,0.8,3.1,2.5,4.4c1.7,1.3,4.1,2.7,7.5,4.1
			c2.1,0.9,3.8,1.7,5.1,2.4c1.4,0.7,2.9,1.7,4.7,2.9c1.8,1.2,3.1,2.5,4.2,3.9c1,1.4,1.9,3,2.6,5C858.8,83.7,859.2,85.8,859.2,88.1z"
			/>
	</g>
	<path class="st1" d="M340.8,26.9c-8,0-14.4,6.4-14.4,14.4s6.4,14.4,14.4,14.4s14.4-6.4,14.4-14.4S348.7,26.9,340.8,26.9z
		 M350.3,43.5c-1,0-1.8-0.8-1.8-1.8c0-4.4-3.6-8-8-8c-1,0-1.8-0.8-1.8-1.8s0.8-1.8,1.8-1.8c6.3,0,11.5,5.2,11.5,11.5
		C352,42.7,351.2,43.5,350.3,43.5z"/>
</g>
</svg>
