<?xml version="1.0" encoding="utf-8"?>
<!-- Generator: Adobe Illustrator 25.2.0, SVG Export Plug-In . SVG Version: 6.00 Build 0)  -->
<svg version="1.1" id="Layer_1" xmlns="http://www.w3.org/2000/svg" xmlns:xlink="http://www.w3.org/1999/xlink" x="0px" y="0px"
	 viewBox="0 0 250 50" style="enable-background:new 0 0 250 50;" xml:space="preserve">
<style type="text/css">
	.st0{enable-background:new    ;}
	.st1{fill:#5c5c5c;}
	.st2{fill:#c7c7c7;}
</style>
<g class="st0">
	<path class="st1" d="M164.8,37.53c0,0.13-0.02,0.24-0.07,0.32c-0.05,0.09-0.16,0.16-0.33,0.22c-0.18,0.06-0.43,0.1-0.77,0.12
		c-0.34,0.02-0.8,0.04-1.39,0.04c-0.49,0-0.88-0.01-1.18-0.04c-0.29-0.02-0.52-0.07-0.69-0.13c-0.17-0.06-0.29-0.15-0.36-0.25
		c-0.07-0.1-0.13-0.22-0.18-0.36l-2.04-5.07c-0.25-0.57-0.49-1.08-0.72-1.53c-0.23-0.44-0.49-0.82-0.78-1.11
		c-0.29-0.3-0.62-0.52-0.99-0.68c-0.37-0.15-0.81-0.23-1.3-0.23h-1.44v8.65c0,0.12-0.04,0.22-0.11,0.32
		c-0.08,0.09-0.2,0.17-0.38,0.23c-0.18,0.06-0.41,0.11-0.7,0.14c-0.29,0.04-0.67,0.05-1.12,0.05c-0.44,0-0.82-0.02-1.11-0.05
		c-0.3-0.04-0.54-0.08-0.71-0.14c-0.18-0.06-0.3-0.13-0.37-0.23c-0.07-0.09-0.11-0.2-0.11-0.32V16.87c0-0.51,0.13-0.89,0.39-1.11
		c0.26-0.23,0.59-0.34,0.97-0.34h5.88c0.6,0,1.09,0.01,1.47,0.04c0.39,0.02,0.74,0.05,1.05,0.09c0.91,0.13,1.73,0.35,2.47,0.67
		c0.73,0.32,1.35,0.73,1.86,1.24c0.51,0.51,0.9,1.11,1.17,1.81c0.27,0.7,0.4,1.5,0.4,2.4c0,0.76-0.1,1.45-0.29,2.08
		c-0.19,0.63-0.48,1.18-0.85,1.68c-0.37,0.49-0.84,0.92-1.39,1.28c-0.55,0.36-1.18,0.66-1.88,0.88c0.34,0.16,0.66,0.36,0.96,0.6
		c0.3,0.23,0.58,0.52,0.84,0.85c0.26,0.33,0.51,0.71,0.75,1.14c0.23,0.43,0.46,0.91,0.68,1.45l1.91,4.48
		c0.18,0.44,0.29,0.77,0.35,0.97C164.77,37.26,164.8,37.42,164.8,37.53z M158.85,22.12c0-0.75-0.17-1.38-0.51-1.9
		c-0.34-0.51-0.9-0.88-1.67-1.09c-0.23-0.06-0.5-0.11-0.8-0.14c-0.3-0.04-0.71-0.05-1.24-0.05h-2.07v6.44h2.35
		c0.66,0,1.23-0.08,1.72-0.24c0.49-0.16,0.9-0.38,1.23-0.67c0.33-0.29,0.57-0.63,0.74-1.03C158.77,23.06,158.85,22.61,158.85,22.12z
		"/>
	<path class="st1" d="M185.47,36.41c0.14,0.42,0.23,0.75,0.26,1c0.04,0.25-0.01,0.43-0.14,0.55c-0.13,0.12-0.36,0.2-0.68,0.23
		c-0.33,0.03-0.78,0.04-1.35,0.04c-0.6,0-1.06-0.01-1.4-0.03c-0.33-0.02-0.59-0.05-0.76-0.11c-0.18-0.05-0.3-0.13-0.37-0.22
		c-0.07-0.09-0.13-0.22-0.18-0.37l-1.53-4.56h-8.53l-1.44,4.44c-0.05,0.16-0.11,0.3-0.18,0.41c-0.08,0.11-0.2,0.2-0.37,0.26
		c-0.17,0.06-0.41,0.11-0.72,0.13c-0.31,0.02-0.72,0.04-1.22,0.04c-0.54,0-0.96-0.02-1.26-0.05c-0.3-0.04-0.52-0.12-0.63-0.25
		c-0.12-0.13-0.16-0.32-0.12-0.57c0.04-0.25,0.12-0.57,0.26-0.98l7-20.15c0.07-0.2,0.15-0.36,0.25-0.48
		c0.09-0.12,0.24-0.22,0.45-0.28c0.2-0.06,0.49-0.11,0.85-0.12c0.36-0.02,0.84-0.03,1.44-0.03c0.69,0,1.24,0.01,1.65,0.03
		c0.41,0.02,0.73,0.06,0.96,0.12c0.23,0.06,0.39,0.16,0.49,0.29c0.1,0.13,0.18,0.3,0.25,0.53L185.47,36.41z M175.04,19.75h-0.02
		l-3.21,9.65h6.44L175.04,19.75z"/>
	<path class="st1" d="M193.56,29.51v7.99c0,0.12-0.04,0.22-0.11,0.32c-0.08,0.09-0.2,0.17-0.38,0.23c-0.18,0.06-0.41,0.11-0.71,0.14
		c-0.3,0.04-0.67,0.05-1.11,0.05c-0.46,0-0.83-0.02-1.12-0.05c-0.29-0.04-0.53-0.08-0.71-0.14c-0.18-0.06-0.31-0.13-0.38-0.23
		c-0.07-0.09-0.11-0.2-0.11-0.32v-7.99l-6.21-12.38c-0.22-0.43-0.37-0.77-0.43-1.01c-0.06-0.24-0.03-0.42,0.11-0.54
		c0.13-0.12,0.38-0.2,0.75-0.23c0.36-0.03,0.87-0.04,1.51-0.04c0.54,0,0.97,0.01,1.29,0.04c0.32,0.02,0.58,0.07,0.76,0.13
		c0.19,0.06,0.32,0.15,0.41,0.25c0.09,0.11,0.17,0.24,0.25,0.4l2.53,5.58c0.25,0.54,0.49,1.11,0.73,1.7
		c0.24,0.6,0.48,1.22,0.73,1.88h0.04c0.22-0.63,0.45-1.25,0.68-1.84c0.23-0.6,0.46-1.16,0.68-1.7l2.49-5.55
		c0.06-0.19,0.13-0.34,0.22-0.45c0.09-0.11,0.22-0.2,0.4-0.27c0.18-0.07,0.42-0.12,0.72-0.14c0.3-0.02,0.71-0.04,1.21-0.04
		c0.67,0,1.18,0.01,1.55,0.04c0.37,0.03,0.62,0.11,0.75,0.23c0.13,0.12,0.17,0.31,0.1,0.55c-0.07,0.25-0.21,0.58-0.42,1
		L193.56,29.51z"/>
</g>
<g class="st0">
	<path class="st2" d="M46.01,31.33c0,1.19-0.22,2.24-0.67,3.14c-0.44,0.9-1.05,1.65-1.81,2.26c-0.76,0.6-1.65,1.06-2.67,1.36
		c-1.02,0.3-2.11,0.46-3.27,0.46c-0.78,0-1.51-0.06-2.19-0.19c-0.67-0.13-1.27-0.28-1.78-0.47c-0.52-0.18-0.95-0.37-1.29-0.57
		c-0.35-0.2-0.59-0.37-0.75-0.53c-0.15-0.15-0.26-0.37-0.32-0.66c-0.06-0.29-0.1-0.7-0.1-1.24c0-0.36,0.01-0.67,0.04-0.91
		c0.02-0.25,0.06-0.44,0.11-0.6c0.05-0.15,0.12-0.26,0.21-0.32c0.09-0.06,0.19-0.1,0.31-0.1c0.16,0,0.39,0.1,0.69,0.29
		c0.3,0.19,0.68,0.41,1.15,0.64c0.47,0.23,1.03,0.45,1.68,0.64c0.65,0.19,1.4,0.29,2.26,0.29c0.56,0,1.06-0.07,1.51-0.2
		c0.44-0.13,0.82-0.32,1.13-0.57c0.31-0.25,0.55-0.55,0.71-0.91c0.16-0.36,0.25-0.77,0.25-1.21c0-0.51-0.14-0.96-0.42-1.33
		c-0.28-0.37-0.65-0.7-1.1-0.98c-0.45-0.29-0.96-0.56-1.54-0.81c-0.57-0.25-1.16-0.52-1.77-0.8c-0.61-0.28-1.2-0.6-1.77-0.96
		c-0.57-0.36-1.09-0.78-1.54-1.28c-0.45-0.5-0.82-1.09-1.1-1.76c-0.28-0.68-0.42-1.49-0.42-2.44c0-1.09,0.2-2.05,0.61-2.87
		c0.4-0.83,0.95-1.51,1.63-2.05c0.68-0.54,1.49-0.95,2.42-1.22c0.93-0.27,1.92-0.4,2.96-0.4c0.54,0,1.08,0.04,1.61,0.12
		c0.54,0.08,1.04,0.19,1.51,0.33c0.47,0.14,0.88,0.3,1.25,0.47c0.36,0.18,0.6,0.32,0.72,0.44c0.12,0.12,0.2,0.22,0.24,0.3
		c0.04,0.08,0.08,0.19,0.11,0.32c0.03,0.13,0.05,0.3,0.06,0.51c0.01,0.2,0.02,0.46,0.02,0.76c0,0.34-0.01,0.63-0.03,0.86
		c-0.02,0.23-0.05,0.43-0.09,0.58c-0.04,0.15-0.1,0.26-0.18,0.33c-0.08,0.07-0.18,0.11-0.31,0.11c-0.13,0-0.33-0.08-0.61-0.25
		c-0.28-0.16-0.63-0.34-1.04-0.54c-0.41-0.19-0.88-0.37-1.42-0.53c-0.54-0.16-1.13-0.24-1.77-0.24c-0.5,0-0.94,0.06-1.32,0.18
		c-0.37,0.12-0.69,0.29-0.94,0.51c-0.25,0.22-0.44,0.48-0.56,0.78c-0.12,0.3-0.18,0.63-0.18,0.97c0,0.5,0.14,0.94,0.41,1.31
		c0.27,0.37,0.64,0.7,1.11,0.98c0.46,0.29,0.99,0.56,1.57,0.81c0.59,0.25,1.18,0.52,1.79,0.8c0.61,0.28,1.21,0.6,1.79,0.96
		c0.59,0.36,1.11,0.78,1.56,1.28c0.46,0.5,0.83,1.08,1.11,1.76C45.87,29.62,46.01,30.41,46.01,31.33z"/>
	<path class="st2" d="M62.97,17.32c0,0.34-0.01,0.63-0.04,0.87c-0.03,0.24-0.07,0.43-0.13,0.58c-0.06,0.15-0.13,0.25-0.22,0.32
		c-0.09,0.07-0.18,0.11-0.29,0.11H56.6v18.31c0,0.12-0.04,0.22-0.11,0.32c-0.08,0.09-0.2,0.17-0.38,0.23
		c-0.18,0.06-0.41,0.11-0.71,0.14c-0.3,0.04-0.67,0.05-1.11,0.05c-0.44,0-0.82-0.02-1.11-0.05c-0.3-0.04-0.54-0.08-0.71-0.14
		c-0.18-0.06-0.3-0.13-0.38-0.23c-0.08-0.09-0.11-0.2-0.11-0.32V19.2h-5.69c-0.12,0-0.22-0.04-0.3-0.11
		c-0.08-0.07-0.15-0.18-0.21-0.32c-0.06-0.15-0.1-0.34-0.13-0.58c-0.03-0.24-0.04-0.53-0.04-0.87c0-0.35,0.01-0.65,0.04-0.9
		c0.03-0.25,0.07-0.44,0.13-0.59c0.06-0.15,0.13-0.25,0.21-0.32c0.08-0.06,0.18-0.1,0.3-0.1h16.01c0.11,0,0.2,0.03,0.29,0.1
		c0.09,0.06,0.16,0.17,0.22,0.32c0.06,0.15,0.1,0.34,0.13,0.59C62.96,16.67,62.97,16.97,62.97,17.32z"/>
	<path class="st2" d="M81.18,37.54c0,0.13-0.02,0.24-0.07,0.32c-0.05,0.09-0.16,0.16-0.33,0.22c-0.18,0.06-0.43,0.1-0.77,0.12
		c-0.34,0.02-0.8,0.04-1.39,0.04c-0.49,0-0.88-0.01-1.18-0.04c-0.29-0.02-0.52-0.07-0.69-0.13c-0.17-0.06-0.29-0.15-0.36-0.25
		c-0.07-0.1-0.13-0.22-0.18-0.36l-2.04-5.07c-0.25-0.57-0.49-1.08-0.72-1.53c-0.23-0.44-0.49-0.82-0.78-1.11
		c-0.29-0.3-0.62-0.52-0.99-0.68c-0.37-0.15-0.81-0.23-1.3-0.23h-1.44v8.65c0,0.12-0.04,0.22-0.11,0.32
		c-0.08,0.09-0.2,0.17-0.38,0.23c-0.18,0.06-0.41,0.11-0.7,0.14c-0.29,0.04-0.67,0.05-1.12,0.05c-0.44,0-0.82-0.02-1.11-0.05
		c-0.3-0.04-0.54-0.08-0.71-0.14c-0.18-0.06-0.3-0.13-0.37-0.23c-0.07-0.09-0.11-0.2-0.11-0.32V16.88c0-0.51,0.13-0.89,0.39-1.11
		c0.26-0.23,0.59-0.34,0.97-0.34h5.88c0.6,0,1.09,0.01,1.47,0.04c0.39,0.02,0.74,0.05,1.05,0.09c0.91,0.13,1.73,0.35,2.47,0.67
		c0.73,0.32,1.35,0.73,1.86,1.24c0.51,0.51,0.9,1.11,1.17,1.81c0.27,0.7,0.4,1.5,0.4,2.4c0,0.76-0.1,1.45-0.29,2.08
		c-0.19,0.63-0.48,1.18-0.85,1.68c-0.37,0.49-0.84,0.92-1.39,1.28c-0.55,0.36-1.18,0.66-1.88,0.88c0.34,0.16,0.66,0.36,0.96,0.6
		c0.3,0.23,0.58,0.52,0.84,0.85c0.26,0.33,0.51,0.71,0.75,1.14c0.23,0.43,0.46,0.91,0.68,1.45l1.91,4.48
		c0.18,0.44,0.29,0.77,0.35,0.97C81.15,37.26,81.18,37.42,81.18,37.54z M75.23,22.13c0-0.75-0.17-1.38-0.51-1.9
		c-0.34-0.51-0.9-0.88-1.67-1.09c-0.23-0.06-0.5-0.11-0.8-0.14s-0.71-0.05-1.24-0.05h-2.07v6.44h2.35c0.66,0,1.23-0.08,1.72-0.24
		c0.49-0.16,0.9-0.38,1.23-0.67c0.33-0.29,0.57-0.63,0.74-1.03C75.15,23.07,75.23,22.62,75.23,22.13z"/>
	<path class="st2" d="M96.7,36.33c0,0.34-0.01,0.62-0.04,0.85c-0.03,0.23-0.07,0.41-0.13,0.55c-0.06,0.14-0.13,0.24-0.22,0.31
		c-0.09,0.06-0.18,0.1-0.29,0.1H84.6c-0.39,0-0.71-0.11-0.97-0.34c-0.26-0.23-0.39-0.6-0.39-1.11v-19.8c0-0.51,0.13-0.89,0.39-1.11
		c0.26-0.23,0.59-0.34,0.97-0.34h11.34c0.11,0,0.2,0.03,0.28,0.09c0.08,0.06,0.15,0.16,0.21,0.31c0.06,0.15,0.1,0.33,0.13,0.56
		c0.03,0.23,0.04,0.52,0.04,0.87c0,0.33-0.01,0.61-0.04,0.83c-0.03,0.23-0.07,0.41-0.13,0.55c-0.06,0.14-0.13,0.24-0.21,0.31
		c-0.08,0.06-0.18,0.1-0.28,0.1h-8.11v5.55h6.86c0.11,0,0.2,0.03,0.29,0.1c0.09,0.06,0.16,0.16,0.22,0.3
		c0.06,0.13,0.1,0.32,0.13,0.54c0.03,0.23,0.04,0.51,0.04,0.83c0,0.34-0.01,0.62-0.04,0.84c-0.03,0.22-0.07,0.4-0.13,0.54
		c-0.06,0.13-0.13,0.23-0.22,0.29c-0.09,0.06-0.18,0.09-0.29,0.09h-6.86v6.41h8.18c0.11,0,0.2,0.03,0.29,0.1
		c0.09,0.06,0.16,0.17,0.22,0.31c0.06,0.14,0.1,0.32,0.13,0.55C96.68,35.71,96.7,35.99,96.7,36.33z"/>
	<path class="st2" d="M117.61,36.42c0.14,0.42,0.23,0.75,0.26,1c0.04,0.25-0.01,0.43-0.14,0.55c-0.13,0.12-0.36,0.2-0.68,0.23
		c-0.33,0.03-0.78,0.04-1.35,0.04c-0.6,0-1.06-0.01-1.4-0.03c-0.33-0.02-0.59-0.05-0.76-0.11c-0.18-0.05-0.3-0.13-0.37-0.22
		c-0.07-0.09-0.13-0.22-0.18-0.37l-1.53-4.56h-8.53l-1.44,4.44c-0.05,0.16-0.11,0.3-0.18,0.41c-0.08,0.11-0.2,0.2-0.37,0.26
		c-0.17,0.06-0.41,0.11-0.72,0.13c-0.31,0.02-0.72,0.04-1.22,0.04c-0.54,0-0.96-0.02-1.26-0.05c-0.3-0.04-0.52-0.12-0.63-0.25
		c-0.12-0.13-0.16-0.32-0.12-0.57c0.04-0.25,0.12-0.57,0.26-0.98l7-20.15c0.07-0.2,0.15-0.36,0.25-0.48
		c0.09-0.12,0.24-0.22,0.45-0.28c0.2-0.06,0.49-0.11,0.85-0.12c0.36-0.02,0.84-0.03,1.44-0.03c0.69,0,1.24,0.01,1.65,0.03
		c0.41,0.02,0.73,0.06,0.96,0.12c0.23,0.06,0.39,0.16,0.49,0.29c0.1,0.13,0.18,0.3,0.25,0.53L117.61,36.42z M107.18,19.76h-0.02
		l-3.21,9.65h6.44L107.18,19.76z"/>
	<path class="st2" d="M145.93,37.51c0,0.12-0.03,0.22-0.1,0.32c-0.06,0.09-0.18,0.17-0.35,0.23c-0.17,0.06-0.39,0.11-0.68,0.14
		c-0.28,0.04-0.64,0.05-1.07,0.05c-0.42,0-0.77-0.02-1.05-0.05c-0.28-0.04-0.5-0.08-0.67-0.14c-0.16-0.06-0.28-0.13-0.35-0.23
		c-0.07-0.09-0.11-0.2-0.11-0.32V19.02h-0.04l-6.58,18.47c-0.05,0.15-0.12,0.28-0.23,0.38c-0.11,0.1-0.25,0.18-0.43,0.24
		c-0.18,0.06-0.41,0.1-0.69,0.11s-0.62,0.03-1.02,0.03c-0.4,0-0.74-0.01-1.02-0.04c-0.28-0.03-0.51-0.08-0.69-0.14
		c-0.18-0.06-0.32-0.14-0.43-0.24c-0.11-0.09-0.18-0.2-0.21-0.33l-6.35-18.47h-0.04v18.48c0,0.12-0.03,0.22-0.1,0.32
		c-0.06,0.09-0.18,0.17-0.36,0.23c-0.18,0.06-0.4,0.11-0.68,0.14c-0.28,0.04-0.63,0.05-1.06,0.05c-0.42,0-0.77-0.02-1.05-0.05
		c-0.28-0.04-0.51-0.08-0.68-0.14c-0.17-0.06-0.29-0.13-0.35-0.23c-0.06-0.09-0.1-0.2-0.1-0.32V17.27c0-0.6,0.16-1.05,0.47-1.37
		c0.32-0.32,0.74-0.47,1.26-0.47h3.02c0.54,0,1,0.04,1.39,0.13c0.39,0.09,0.72,0.23,1,0.44c0.28,0.2,0.51,0.47,0.7,0.81
		c0.19,0.33,0.35,0.75,0.49,1.24l4.92,13.53h0.07l5.09-13.5c0.15-0.49,0.32-0.91,0.5-1.25c0.18-0.34,0.39-0.61,0.63-0.82
		c0.24-0.21,0.52-0.36,0.85-0.45c0.33-0.09,0.71-0.13,1.14-0.13h3.11c0.32,0,0.59,0.04,0.82,0.12c0.23,0.08,0.42,0.2,0.56,0.36
		c0.15,0.16,0.26,0.35,0.33,0.58c0.08,0.23,0.11,0.49,0.11,0.78V37.51z"/>
</g>
<g>
	<g>
		<path class="st2" d="M198.09,19.17c0.4-1.19,0.8-2.37,1.18-3.56c0.4-1.28,1.44-2.22,2.52-2.14c0.41,0.03,0.84,0.22,1.2,0.43
			c1.04,0.6,1.69,0.29,1.78-0.91c0.03-0.37,0.02-0.75-0.03-1.12c-0.09-0.69-0.08-1.28,0.65-1.69c0.23-0.13,0.35-0.57,0.39-0.89
			c0.19-1.43,0.38-2.86,0.5-4.29c0.14-1.58,1.73-3.4,3.59-3.3c1.03,0.05,2.13-0.13,2.9,0.73c0.46,0.51,0.92,1.11,1.09,1.75
			c0.33,1.29,0.47,2.64,0.67,3.96c0.16,1.1,0.8,1.39,2.07,1.24c2.36-0.27,4.73-0.42,7.1-0.61c0.25-0.02,0.5,0.02,0.75,0.05
			c1.1,0.15,1.5,0.99,0.88,1.89c-1.8,2.58-4.09,4.63-6.77,6.27c-0.88,0.54-1.77,1.08-2.55,1.74c-0.25,0.21-0.36,0.87-0.23,1.22
			c0.26,0.71,0.25,1.32-0.08,1.98c-0.14,0.3-0.26,0.67-0.22,0.99c0.08,0.56,0.12,1.01-0.5,1.33c-0.16,0.08-0.18,0.61-0.12,0.9
			c0.09,0.42,0.36,0.8,0.46,1.22c0.05,0.23-0.09,0.5-0.14,0.75c-0.27-0.11-0.71-0.17-0.76-0.34c-0.19-0.62-0.43-1.33-0.3-1.93
			c0.19-0.84,0.3-1.5-0.48-2.09c-0.18-0.13-0.21-0.63-0.13-0.91c0.45-1.5-0.17-2.84-0.65-4.16c-0.3-0.83-1.62-1.01-2.47-0.4
			c-0.76,0.54-1.47,1.16-2.11,1.83c-0.52,0.54-0.82,0.61-1.32-0.03c-1.37-1.74-1.39-1.72-2.81,0.07c-0.37,0.47-0.86,0.85-1.15,1.36
			c-0.2,0.36-0.35,0.97-0.18,1.27c0.17,0.3,0.83,0.54,1.18,0.45c1.02-0.26,2-0.73,3.01-1.06c0.33-0.11,0.75-0.14,1.07-0.04
			c1.33,0.43,2.62,0.96,3.95,1.38c0.77,0.24,0.97,0.54,0.64,1.35c-0.91,2.23-0.37,3.96,1.52,5.49c0.87,0.71,1.68,1.5,2.49,2.27
			c0.51,0.48,0.53,0.95-0.09,1.39c-1.68,1.2-3.43,2.24-5.42,2.86c-0.98,0.31-1.93,0.7-2.9,1.06c-0.12,0.04-0.23,0.1-0.35,0.14
			c-1,0.31-2.26,0.79-2.93,0.01c-0.46-0.53-0.21-1.84,0.01-2.73c0.29-1.18-0.03-2.22-0.51-3.16c-1.13-2.24-1.78-4.59-2.11-7.05
			c-0.17-1.25-0.63-1.55-1.74-0.93c-0.51,0.29-0.95,0.71-1.43,1.06c-0.92,0.67-1.77,0.3-1.9-0.85c-0.05-0.4-0.01-0.81-0.01-1.22
			C197.25,22.18,197.76,20.15,198.09,19.17z M217.05,10.97c-0.3-0.03-0.45-0.05-0.61-0.06c-0.77-0.04-1.53,0.23-1.61,0.98
			c-0.08,0.77,0.02,1.78,0.48,2.32c0.46,0.54,1.29,0.06,1.93-0.39c0.65-0.46,1.44-0.71,2.1-1.16c0.39-0.26,0.84-0.71,0.89-1.12
			c0.09-0.65-0.54-0.75-1.07-0.72C218.41,10.85,217.66,10.93,217.05,10.97z"/>
		<path class="st2" d="M206.04,37.58c-0.42,0-0.8-0.11-1.08-0.44c-0.48-0.56-0.23-1.86,0-2.79c0.31-1.29-0.14-2.4-0.5-3.12
			c-1.06-2.1-1.75-4.41-2.12-7.07c-0.09-0.64-0.25-1-0.51-1.13c-0.25-0.12-0.61-0.05-1.14,0.25c-0.33,0.18-0.63,0.43-0.93,0.67
			c-0.16,0.13-0.33,0.26-0.5,0.39c-0.46,0.34-0.93,0.43-1.31,0.27c-0.38-0.17-0.63-0.58-0.7-1.16c-0.03-0.28-0.02-0.57-0.02-0.85
			c0-0.12,0.01-0.24,0.01-0.36c-0.02-0.08,0.02-0.34,0.23-1.19c0.17-0.69,0.38-1.43,0.54-1.89c0.11-0.32,0.22-0.65,0.32-0.97
			c0.29-0.85,0.58-1.73,0.86-2.6c0.42-1.34,1.51-2.26,2.59-2.19c0.36,0.03,0.78,0.17,1.23,0.44c0.5,0.29,0.91,0.36,1.19,0.21
			c0.28-0.15,0.45-0.52,0.49-1.07c0.03-0.37,0.02-0.75-0.03-1.11c-0.08-0.68-0.1-1.32,0.68-1.76c0.2-0.11,0.32-0.52,0.36-0.84
			c0.17-1.27,0.37-2.78,0.5-4.29c0.14-1.64,1.78-3.46,3.66-3.36c0.19,0.01,0.39,0.01,0.58,0.01c0.85,0.01,1.72,0.02,2.38,0.74
			c0.39,0.43,0.92,1.08,1.1,1.78c0.26,1,0.4,2.04,0.54,3.04c0.04,0.31,0.09,0.62,0.13,0.93c0.15,1.02,0.7,1.34,2,1.19
			c1.77-0.2,3.58-0.34,5.32-0.47c0.59-0.04,1.19-0.09,1.78-0.14c0.25-0.02,0.51,0.01,0.76,0.05c0.58,0.08,0.99,0.34,1.16,0.73
			c0.16,0.37,0.08,0.82-0.22,1.27c-1.73,2.48-4.01,4.59-6.79,6.29c-0.87,0.53-1.76,1.07-2.55,1.73c-0.22,0.19-0.34,0.8-0.21,1.14
			c0.27,0.73,0.25,1.36-0.08,2.04c-0.1,0.21-0.26,0.6-0.21,0.95c0.07,0.54,0.14,1.05-0.54,1.4c-0.1,0.05-0.15,0.51-0.08,0.83
			c0.04,0.21,0.14,0.41,0.23,0.61c0.09,0.2,0.18,0.4,0.23,0.61c0.04,0.17-0.02,0.36-0.07,0.55c-0.02,0.08-0.05,0.16-0.06,0.23
			l-0.02,0.08l-0.08-0.03c-0.08-0.03-0.18-0.06-0.28-0.09c-0.25-0.07-0.48-0.14-0.52-0.3l-0.05-0.16c-0.18-0.58-0.37-1.24-0.25-1.81
			c0.2-0.89,0.27-1.47-0.46-2.02c-0.21-0.16-0.24-0.7-0.15-0.98c0.4-1.33-0.06-2.54-0.5-3.72c-0.05-0.13-0.1-0.27-0.15-0.4
			c-0.11-0.3-0.37-0.53-0.74-0.64c-0.53-0.16-1.17-0.06-1.63,0.27c-0.76,0.54-1.47,1.15-2.1,1.82c-0.31,0.33-0.53,0.46-0.75,0.45
			c-0.21-0.01-0.42-0.16-0.67-0.48c-0.67-0.85-1.01-1.26-1.32-1.26l0,0c-0.33,0-0.68,0.45-1.39,1.34c-0.14,0.18-0.31,0.35-0.46,0.52
			c-0.25,0.26-0.51,0.53-0.68,0.84c-0.21,0.37-0.33,0.94-0.18,1.2c0.15,0.26,0.78,0.51,1.1,0.42c0.61-0.16,1.21-0.39,1.79-0.61
			c0.39-0.15,0.8-0.31,1.21-0.44c0.38-0.12,0.8-0.14,1.11-0.04c0.64,0.21,1.29,0.44,1.91,0.67c0.66,0.24,1.35,0.49,2.04,0.71
			c0.44,0.14,0.68,0.3,0.78,0.52s0.07,0.51-0.1,0.93c-0.88,2.15-0.4,3.87,1.5,5.41c0.73,0.59,1.43,1.26,2.1,1.9
			c0.13,0.12,0.26,0.25,0.39,0.37c0.28,0.27,0.41,0.53,0.4,0.78c-0.02,0.25-0.18,0.49-0.5,0.72c-1.98,1.42-3.7,2.33-5.44,2.87
			c-0.68,0.21-1.35,0.47-2.01,0.72c-0.3,0.11-0.59,0.23-0.89,0.34c-0.05,0.02-0.09,0.04-0.14,0.06c-0.07,0.03-0.14,0.06-0.22,0.08
			c-0.08,0.02-0.15,0.05-0.23,0.07C207.19,37.39,206.58,37.58,206.04,37.58z M201.58,22.84c0.12,0,0.22,0.02,0.32,0.07
			c0.3,0.15,0.49,0.54,0.58,1.23c0.36,2.64,1.05,4.94,2.1,7.03c0.37,0.74,0.84,1.88,0.51,3.21c-0.13,0.52-0.51,2.11-0.03,2.67
			c0.58,0.68,1.67,0.34,2.62,0.04c0.08-0.03,0.16-0.05,0.23-0.07c0.07-0.02,0.13-0.05,0.2-0.08c0.05-0.02,0.1-0.04,0.14-0.06
			c0.3-0.11,0.59-0.22,0.89-0.34c0.66-0.25,1.33-0.51,2.01-0.73c1.72-0.54,3.44-1.44,5.4-2.85c0.28-0.2,0.43-0.41,0.44-0.62
			c0.01-0.21-0.1-0.44-0.36-0.67c-0.13-0.12-0.26-0.25-0.39-0.37c-0.67-0.64-1.37-1.3-2.09-1.89c-1.96-1.59-2.45-3.35-1.54-5.57
			c0.16-0.38,0.19-0.63,0.1-0.82c-0.08-0.18-0.29-0.32-0.7-0.44c-0.69-0.22-1.37-0.47-2.04-0.71c-0.62-0.23-1.27-0.46-1.91-0.67
			c-0.28-0.09-0.68-0.08-1.03,0.04c-0.41,0.13-0.81,0.29-1.2,0.44c-0.59,0.23-1.19,0.46-1.81,0.62c-0.38,0.1-1.07-0.17-1.25-0.49
			c-0.2-0.35-0.01-1,0.18-1.33c0.18-0.32,0.44-0.6,0.7-0.86c0.16-0.16,0.32-0.33,0.45-0.51c0.73-0.92,1.1-1.39,1.49-1.39l0,0
			c0.37,0,0.71,0.4,1.43,1.31c0.23,0.29,0.41,0.42,0.57,0.43c0.17,0.01,0.36-0.11,0.65-0.41c0.64-0.67,1.35-1.29,2.12-1.84
			c0.49-0.35,1.18-0.47,1.75-0.29c0.41,0.13,0.7,0.38,0.82,0.72c0.05,0.13,0.1,0.27,0.15,0.4c0.45,1.2,0.91,2.43,0.5,3.8
			c-0.08,0.26-0.04,0.72,0.1,0.83c0.84,0.64,0.68,1.38,0.51,2.16c-0.12,0.53,0.08,1.17,0.25,1.74l0.05,0.16
			c0.03,0.08,0.25,0.15,0.43,0.21c0.07,0.02,0.15,0.04,0.22,0.07c0.01-0.06,0.03-0.11,0.05-0.17c0.05-0.17,0.1-0.34,0.07-0.48
			c-0.05-0.2-0.14-0.39-0.22-0.58c-0.09-0.21-0.19-0.42-0.24-0.64c-0.06-0.28-0.06-0.87,0.15-0.98c0.57-0.29,0.55-0.67,0.47-1.27
			c-0.05-0.38,0.12-0.81,0.22-1.03c0.31-0.64,0.33-1.24,0.07-1.93c-0.13-0.36-0.03-1.05,0.25-1.29c0.79-0.66,1.69-1.21,2.56-1.74
			c2.77-1.68,5.04-3.79,6.75-6.25c0.28-0.4,0.36-0.81,0.21-1.14c-0.15-0.35-0.52-0.58-1.04-0.65c-0.25-0.03-0.5-0.07-0.74-0.05
			c-0.59,0.05-1.19,0.09-1.78,0.14c-1.75,0.13-3.55,0.27-5.32,0.47c-1.36,0.16-1.99-0.22-2.15-1.3c-0.05-0.31-0.09-0.62-0.13-0.93
			c-0.14-1-0.28-2.04-0.54-3.03c-0.17-0.67-0.69-1.3-1.07-1.72c-0.61-0.68-1.42-0.69-2.28-0.7c-0.19,0-0.39,0-0.58-0.01
			c-1.82-0.1-3.38,1.66-3.52,3.24c-0.13,1.51-0.33,3.02-0.5,4.29c-0.02,0.18-0.13,0.77-0.43,0.94c-0.71,0.4-0.69,0.97-0.61,1.63
			c0.05,0.37,0.06,0.76,0.03,1.14c-0.04,0.61-0.23,1.01-0.56,1.18c-0.33,0.17-0.78,0.1-1.32-0.22c-0.44-0.25-0.83-0.4-1.17-0.42
			c-1.02-0.07-2.05,0.81-2.45,2.09c-0.27,0.87-0.57,1.75-0.86,2.6c-0.11,0.32-0.22,0.65-0.32,0.97c-0.31,0.92-0.76,2.69-0.77,2.97
			l0.01,0v0.05c0,0.13,0,0.26-0.01,0.39c-0.01,0.27-0.02,0.56,0.01,0.83c0.06,0.53,0.28,0.9,0.62,1.05
			c0.34,0.15,0.75,0.06,1.18-0.25c0.17-0.12,0.33-0.25,0.49-0.38c0.3-0.24,0.61-0.49,0.95-0.68
			C201.02,22.94,201.33,22.84,201.58,22.84z M215.84,14.52c-0.22,0-0.42-0.08-0.58-0.26c-0.49-0.58-0.58-1.63-0.5-2.37
			c0.09-0.82,0.96-1.07,1.68-1.04c0.1,0.01,0.2,0.02,0.34,0.03c0.08,0.01,0.16,0.02,0.26,0.03c0.17-0.01,0.36-0.03,0.55-0.05
			c0.48-0.04,1.02-0.09,1.56-0.11c0.48-0.02,0.82,0.07,1,0.27c0.12,0.13,0.17,0.31,0.14,0.54c-0.06,0.43-0.51,0.88-0.92,1.16
			c-0.32,0.22-0.68,0.39-1.02,0.56c-0.37,0.18-0.74,0.36-1.07,0.6C216.85,14.17,216.3,14.52,215.84,14.52z M216.3,10.98
			c-0.65,0-1.33,0.24-1.41,0.92c-0.08,0.76,0.03,1.76,0.47,2.27c0.33,0.39,0.92,0.26,1.84-0.4c0.34-0.24,0.72-0.43,1.09-0.61
			c0.34-0.17,0.69-0.34,1.01-0.55c0.37-0.25,0.81-0.68,0.86-1.07c0.02-0.18-0.01-0.32-0.11-0.43c-0.15-0.16-0.46-0.24-0.89-0.22
			c-0.54,0.02-1.08,0.07-1.55,0.11c-0.19,0.02-0.38,0.03-0.56,0.05h-0.01h-0.01c-0.11-0.01-0.19-0.02-0.27-0.03
			c-0.14-0.01-0.24-0.03-0.34-0.03C216.39,10.98,216.34,10.98,216.3,10.98z"/>
	</g>
	<g>
		<path class="st2" d="M219.01,39.05c-0.36,2.82-0.72,5.64-1.07,8.46c-0.07,0.59-0.42,0.79-0.97,0.78c-1.16-0.01-2.32-0.01-3.48,0
			c-0.59,0.01-0.82-0.25-0.85-0.85c-0.1-2.02-0.39-4.05-0.33-6.07c0.05-1.75,1.04-3.16,2.48-4.2c0.93-0.67,1.85-1.38,2.79-2.05
			c0.21-0.15,0.55-0.34,0.72-0.27C218.48,34.94,218.97,39.04,219.01,39.05z"/>
		<path class="st2" d="M213.47,48.36c-0.6,0-0.86-0.27-0.89-0.91c-0.03-0.72-0.1-1.45-0.15-2.16c-0.1-1.28-0.21-2.61-0.18-3.91
			c0.05-1.63,0.92-3.1,2.51-4.25c0.42-0.3,0.84-0.62,1.25-0.92c0.5-0.37,1.02-0.76,1.53-1.13c0.16-0.11,0.56-0.37,0.78-0.27
			c0.11,0.05,0.21,0.49,0.58,3.15c0.06,0.46,0.13,0.9,0.15,1.03l0.02,0l-0.29,2.25c-0.26,2.06-0.53,4.18-0.8,6.27
			c-0.07,0.58-0.4,0.84-1.02,0.84c0,0-0.01,0-0.01,0c-0.95-0.01-2.21-0.01-3.48,0C213.49,48.36,213.48,48.36,213.47,48.36z
			 M218.22,34.92c-0.13,0-0.35,0.1-0.59,0.27c-0.51,0.37-1.03,0.75-1.53,1.12c-0.41,0.3-0.83,0.62-1.26,0.92
			c-1.56,1.13-2.41,2.56-2.45,4.15c-0.04,1.3,0.07,2.62,0.18,3.9c0.06,0.71,0.12,1.44,0.15,2.16c0.03,0.58,0.24,0.79,0.78,0.78
			c1.26-0.01,2.53-0.01,3.48,0c0,0,0.01,0,0.01,0c0.56,0,0.82-0.22,0.89-0.73c0.26-2.09,0.53-4.22,0.8-6.27l0.28-2.18
			c-0.03-0.1-0.07-0.37-0.16-1.07c-0.14-1.01-0.4-2.87-0.51-3.05C218.25,34.92,218.24,34.92,218.22,34.92z"/>
	</g>
	<g>
		<path class="st2" d="M203.22,48.29c-0.94,0-1.88,0.01-2.82-0.01c-0.37-0.01-0.86-0.02-0.64-0.62c1.07-2.87,2.37-5.63,4.09-8.18
			c0.34-0.49,0.67-0.41,1.12-0.21c1.7,0.77,3.43,1.49,5.12,2.29c0.15,0.07,0.26,0.59,0.16,0.76c-0.9,1.59-1.89,3.14-2.79,4.74
			c-0.48,0.84-1.05,1.35-2.09,1.25C204.67,48.24,203.94,48.3,203.22,48.29C203.22,48.29,203.22,48.29,203.22,48.29z"/>
		<path class="st2" d="M205.63,48.39c-0.08,0-0.16,0-0.25-0.01c-0.49-0.05-1-0.03-1.48-0.02c-0.22,0.01-0.45,0.01-0.67,0.01
			l-0.07-0.01c-0.25,0-0.49,0-0.74,0c-0.66,0-1.34,0.01-2.01-0.01c-0.25-0.01-0.56-0.01-0.7-0.21c-0.08-0.12-0.08-0.28,0-0.5
			c1.19-3.19,2.53-5.87,4.1-8.19c0.37-0.55,0.77-0.43,1.2-0.23c0.65,0.29,1.32,0.59,1.97,0.87c1.04,0.46,2.11,0.93,3.15,1.41
			c0.09,0.04,0.15,0.18,0.18,0.28c0.06,0.18,0.09,0.44,0.01,0.58c-0.46,0.81-0.94,1.62-1.41,2.4c-0.46,0.76-0.93,1.55-1.38,2.34
			C207.16,47.74,206.65,48.39,205.63,48.39z M204.56,48.21c0.28,0,0.56,0.01,0.83,0.03c0.9,0.09,1.48-0.26,2.02-1.21
			c0.45-0.79,0.92-1.58,1.38-2.34c0.47-0.78,0.95-1.59,1.41-2.4c0.05-0.08,0.04-0.29-0.02-0.47c-0.04-0.12-0.08-0.18-0.11-0.2
			c-1.04-0.49-2.11-0.96-3.15-1.41c-0.65-0.28-1.31-0.58-1.97-0.87c-0.48-0.22-0.75-0.24-1.04,0.19c-1.57,2.31-2.9,4.98-4.09,8.17
			c-0.06,0.17-0.07,0.3-0.01,0.38c0.1,0.14,0.37,0.14,0.59,0.15c0.67,0.01,1.35,0.01,2.01,0.01c0.27,0,0.54,0,0.81,0l0.07,0.01
			c0.2,0,0.4-0.01,0.6-0.01C204.11,48.21,204.33,48.21,204.56,48.21z"/>
	</g>
</g>
</svg>
